# xmcd CD database file
#
# Track frame offsets:
#	150
#	861
#	24477
#	35720
#	55971
#	76730
#	93411
#	112477
#	140443
#	154059
#	168279
#	185326
#	207554
#	226047
#	242876
#	262462
#	288225
#	313746
#	336337
#	354859
#	376286
#
# Disc length: 5213 seconds
#
# Revision: 0
# Processed by: cddbd v1.5.2PL0 Copyright (c) Steve Scherf et al.
# Submitted via: CDex 1.70beta2
#
DISCID=29145b15
DTITLE=Agatha Christie - Hercule Poirots Weihnachten
DYEAR=2009
DGENRE=Hoerbuch
TTITLE0=01
TTITLE1=02
TTITLE2=03
TTITLE3=04
TTITLE4=05
TTITLE5=06
TTITLE6=07
TTITLE7=08
TTITLE8=09
TTITLE9=10
TTITLE10=11
TTITLE11=12
TTITLE12=13
TTITLE13=14
TTITLE14=15
TTITLE15=16
TTITLE16=17
TTITLE17=18
TTITLE18=19
TTITLE19=20
TTITLE20=21
EXTD=YEAR: 2009
EXTT0=
EXTT1=
EXTT2=
EXTT3=
EXTT4=
EXTT5=
EXTT6=
EXTT7=
EXTT8=
EXTT9=
EXTT10=
EXTT11=
EXTT12=
EXTT13=
EXTT14=
EXTT15=
EXTT16=
EXTT17=
EXTT18=
EXTT19=
EXTT20=
PLAYORDER=
